<svg width="190" height="190" viewBox="0 0 190 190" fill="none" xmlns="http://www.w3.org/2000/svg">
<g opacity="0.28">
<circle cx="95" cy="95" r="94.6583" stroke="#69BAFF" stroke-width="0.683453"/>
<circle cx="95.0004" cy="94.9999" r="73.2173" stroke="#4AAAFF" stroke-width="0.683453"/>
<circle cx="94.9996" cy="95.0001" r="50.7867" stroke="#2F8DF0" stroke-width="0.683453"/>
<circle cx="94.9997" cy="95" r="31.9847" stroke="#2F8DF0" stroke-width="0.683453"/>
</g>
<path fill-rule="evenodd" clip-rule="evenodd" d="M166.739 166.741C165.531 167.951 163.891 168.632 162.181 168.632C160.471 168.632 158.831 167.951 157.623 166.741L135.759 144.876L140.623 140.016L144.874 135.761L166.739 157.625C169.254 160.143 169.254 164.222 166.739 166.741Z" fill="#838D9B"/>
<path fill-rule="evenodd" clip-rule="evenodd" d="M139.07 123.205L146.359 130.515C147.391 131.548 147.391 133.222 146.359 134.256L145.907 134.707L144.875 135.761L135.76 144.876L134.706 145.908L134.255 146.36C133.221 147.392 131.547 147.392 130.514 146.36L123.204 139.071L139.07 123.205Z" fill="#838D9B"/>
<path fill-rule="evenodd" clip-rule="evenodd" d="M147.132 95.5364C147.132 124.033 124.031 147.134 95.5346 147.134C67.0383 147.134 43.9375 124.033 43.9375 95.5364C43.9375 67.0401 67.0383 43.9393 95.5346 43.9393C109.254 43.8235 122.445 49.2225 132.147 58.924C141.849 68.6255 147.247 81.8169 147.132 95.5364Z" fill="#CCD3E0"/>
<path d="M95.5352 138.534C119.282 138.534 138.533 119.283 138.533 95.5362C138.533 71.7892 119.282 52.5386 95.5352 52.5386C71.7883 52.5386 52.5376 71.7892 52.5376 95.5362C52.5376 119.283 71.7883 138.534 95.5352 138.534Z" fill="#E4F3FF"/>
</svg>
